PathFileType	4	(x/y/z)	S06_P20_T63
DataRate	CameraRate	NumFrames	NumMarkers	Units	OrigDataRate	OrigDataStartFrame	OrigNumFrames
240	240	10	51	mm	240	134	355
Frame#	Time	Sternum			R.Acromium			L.Acromium			Top.Head			R.ASIS			L.ASIS			R.PSIS			L.PSIS			R.Great.Tro			L.Great.Tro			R.Iliac.Crest			L.Iliac.Crest			V.Sacral			R.Thigh.Upper.Post			R.Thigh.Lower.Ant			R.Thigh.Lower.Post			R.Thigh.Upper.Ant			R.Knee.Lat			R.Knee.Med			R.Shank.Upper.Post			R.Shank.Lower.Ant			R.Shank.Lower.Post			R.Shank.Upper.Ant			R.Ankle.Lat			R.Ankle.Med			R.Heel.Upper			R.Heel.Med			R.Heel.Lat			R.Toe.Lat			R.Toe.Med			R.Toe.Tip			L.Thigh.Upper.Post			L.Thigh.Lower.Ant			L.Thigh.Lower.Post			L.Thigh.Upper.Ant			L.Knee.Lat			L.Knee.Med			L.Shank.Upper.Post			L.Shank.Lower.Ant			L.Shank.Lower.Post			L.Shank.Upper.Ant			L.Ankle.Lat			L.Ankle.Med			L.Heel.Upper			L.Heel.Med			L.Heel.Lat			L.Toe.Lat			L.Toe.Med			L.Toe.Tip			Cervical.Spine			Back			
		X1	Y1	Z1	X2	Y2	Z2	X3	Y3	Z3	X4	Y4	Z4	X5	Y5	Z5	X6	Y6	Z6	X7	Y7	Z7	X8	Y8	Z8	X9	Y9	Z9	X10	Y10	Z10	X11	Y11	Z11	X12	Y12	Z12	X13	Y13	Z13	X14	Y14	Z14	X15	Y15	Z15	X16	Y16	Z16	X17	Y17	Z17	X18	Y18	Z18	X19	Y19	Z19	X20	Y20	Z20	X21	Y21	Z21	X22	Y22	Z22	X23	Y23	Z23	X24	Y24	Z24	X25	Y25	Z25	X26	Y26	Z26	X27	Y27	Z27	X28	Y28	Z28	X29	Y29	Z29	X30	Y30	Z30	X31	Y31	Z31	X32	Y32	Z32	X33	Y33	Z33	X34	Y34	Z34	X35	Y35	Z35	X36	Y36	Z36	X37	Y37	Z37	X38	Y38	Z38	X39	Y39	Z39	X40	Y40	Z40	X41	Y41	Z41	X42	Y42	Z42	X43	Y43	Z43	X44	Y44	Z44	X45	Y45	Z45	X46	Y46	Z46	X47	Y47	Z47	X48	Y48	Z48	X49	Y49	Z49	X50	Y50	Z50	X51	Y51	Z51	

134	0.55417	-628.09	1270.2	315.48	-754.83	1478.4	480.18	-754.89	1475.7	126.55	-752.17	1797	300.7	-679.63	1037.5	441.18	-673.87	1027.8	188.74	NaN	NaN	NaN	-877.76	1061.5	268.55	-730.99	966.7	491.82	-776.73	966.3	134.5	-767.91	1113.2	472.56	-743.12	1103.2	152.14	-893.82	1025.4	311.73	-661.19	725.25	470.4	-583.84	666.53	431.9	-648.11	639.67	444.2	-592.7	754.83	454.25	-591.61	543.55	427.57	-593.84	552.63	299.94	-597.72	313.07	420.01	-528.95	259.32	396.01	-590.89	236.82	403.41	-537.46	334.3	411.37	-532.66	109.4	377.72	-521.01	120.47	287.42	-591.18	64.247	322.88	-576.48	35.884	292.33	-576.94	33.667	356.75	-401.77	62.588	395.17	-383.99	84.705	279.11	-322.34	114.57	323.87	-756.53	703.45	143.36	-711.41	614.34	190.51	-783.09	617.38	156.97	-689.13	705.88	171.86	-824.44	527.57	173.79	-779.73	518.23	288.34	-990.25	369.09	191.96	-975.98	281.64	189.96	-1037.2	314.87	210.84	-933.13	337.52	176.55	-1085.8	164.41	211.04	-1068.4	174.93	301.31	-1167.5	175.43	256.71	-1176.8	157.36	293.57	-1175.8	146.21	232.56	-1031	45.426	213.59	-1014.9	60.22	330.41	-946.57	39.279	285.25	-813.35	1531.5	302.27	-870.18	1260	303.54
135	0.55833	-622.31	1270.5	315.8	-749.17	1478.4	480.65	-749.51	1475.7	127	-746.55	1797.1	301.05	-673.6	1037.6	441.52	-667.99	1027.9	189.14	NaN	NaN	NaN	-871.69	1061.5	268.86	-724.97	966.83	492.11	-770.6	966.11	134.77	-761.87	1113.3	472.91	-737.27	1103.4	152.48	-887.78	1025.4	312.08	-655.22	725.26	470.67	-578.2	666.52	432.33	-642.55	639.67	444.61	-587.02	754.69	454.19	-586.33	543.33	427.78	-589.28	552.3	300.17	-594.06	312.87	420.28	-525.81	258.63	395.95	-587.88	236.59	403.63	-533.66	333.66	411.32	-531.02	108.97	377.71	-519.36	119.74	287.32	-590.29	64.818	322.92	-576.11	36.151	292.37	-576.57	34.002	356.79	-400.92	60.43	394.93	-382.85	82.125	278.88	-320.63	111.1	323.5	-747.5	702.97	142.56	-701.44	614.13	189.33	-773.16	616.57	155.84	-680.14	706	171.12	-813.82	526.67	172.39	-768.91	517.01	286.83	-981.35	370.88	190.07	-968.53	283.2	188.28	-1029.2	317.48	208.84	-924.65	338.41	175.01	-1079.9	167.77	209.04	-1062.8	178.44	299.4	-1161.3	181.73	254.08	-1171.4	164.46	291.12	-1170.5	152.58	230.19	-1029.2	46.694	212.88	-1013.1	62.236	329.5	-945.67	38.879	284.96	-807.92	1531.5	302.78	-864.42	1259.9	304.01
136	0.5625	-616.54	1270.7	316.09	-743.49	1478.5	481.12	-744.15	1475.8	127.46	-740.92	1797.2	301.41	-667.62	1037.8	441.84	-662.15	1028.1	189.5	NaN	NaN	NaN	-865.67	1061.4	269.16	-719	967.02	492.4	-764.52	965.91	135.02	-755.85	1113.4	473.23	-731.47	1103.5	152.8	-881.74	1025.4	312.43	-649.33	725.33	470.99	-572.62	666.56	432.8	-637.04	639.71	445.06	-581.4	754.6	454.14	-581.14	543.13	428.04	-584.76	552	300.44	-590.5	312.7	420.59	-522.76	257.98	395.94	-584.95	236.38	403.88	-529.97	333.06	411.33	-529.46	108.58	377.74	-517.77	119.09	287.27	-589.44	65.368	322.97	-575.74	36.438	292.41	-576.21	34.327	356.83	-400.14	58.36	394.74	-381.76	79.691	278.7	-319.01	107.77	323.23	-738.33	702.5	141.77	-691.3	613.98	188.2	-763.06	615.78	154.72	-671.02	706.15	170.41	-802.94	525.78	171	-757.88	515.82	285.38	-972.11	372.68	188.12	-960.75	284.81	186.61	-1020.8	320.12	206.77	-915.85	339.32	173.49	-1073.7	171.28	207	-1057	182.08	297.46	-1154.7	188.2	251.34	-1165.6	171.71	288.53	-1164.8	159.15	227.67	-1027.2	48.2	212.05	-1011	64.444	328.47	-944.59	38.511	284.58	-802.48	1531.4	303.3	-858.68	1259.9	304.5
137	0.56667	-610.81	1271	316.36	-737.79	1478.6	481.58	-738.82	1475.9	127.92	-735.3	1797.3	301.76	-661.69	1038.1	442.13	-656.37	1028.3	189.82	NaN	NaN	NaN	-859.73	1061.4	269.44	-713.09	967.26	492.68	-758.49	965.68	135.27	-749.86	1113.5	473.53	-725.74	1103.6	153.1	-875.72	1025.4	312.77	-643.55	725.45	471.35	-567.11	666.63	433.29	-631.58	639.8	445.56	-575.85	754.54	454.12	-576.03	542.96	428.35	-580.25	551.73	300.77	-587.05	312.56	420.93	-519.82	257.36	395.98	-582.12	236.21	404.15	-526.39	332.49	411.4	-527.99	108.21	377.79	-516.24	118.52	287.25	-588.64	65.896	323.05	-575.38	36.739	292.46	-575.85	34.639	356.87	-399.43	56.383	394.61	-380.73	77.407	278.59	-317.5	104.59	323.03	-729.01	702.05	140.98	-681.03	613.89	187.13	-752.79	615.01	153.62	-661.79	706.35	169.75	-791.82	524.89	169.62	-746.68	514.69	284	-962.54	374.52	186.11	-952.64	286.46	184.96	-1012.1	322.81	204.64	-906.74	340.26	172.02	-1067.2	174.94	204.94	-1050.9	185.84	295.5	-1147.7	194.81	248.49	-1159.4	179.09	285.81	-1158.8	165.89	225.03	-1024.9	49.961	211.11	-1008.7	66.843	327.34	-943.28	38.189	284.1	-797.05	1531.4	303.83	-852.96	1259.8	304.99
138	0.57083	-605.1	1271.3	316.6	-732.07	1478.7	482.04	-733.53	1476	128.37	-729.69	1797.3	302.12	-655.81	1038.3	442.4	-650.63	1028.5	190.11	NaN	NaN	NaN	-853.85	1061.3	269.7	-707.24	967.55	492.96	-752.51	965.44	135.5	-743.9	1113.7	473.8	-720.07	1103.7	153.36	-869.73	1025.4	313.09	-637.87	725.62	471.74	-561.66	666.74	433.8	-626.18	639.92	446.1	-570.37	754.53	454.13	-571.02	542.81	428.7	-575.75	551.49	301.15	-583.7	312.45	421.3	-516.98	256.78	396.08	-579.4	236.08	404.45	-522.92	331.94	411.52	-526.61	107.87	377.87	-514.78	118.01	287.28	-587.88	66.396	323.13	-575.02	37.05	292.52	-575.52	34.938	356.93	-398.79	54.507	394.54	-379.76	75.274	278.52	-316.08	101.57	322.9	-719.58	701.61	140.2	-670.63	613.86	186.13	-742.37	614.26	152.56	-652.47	706.6	169.15	-780.49	524.03	168.28	-735.32	513.62	282.71	-952.67	376.38	184.07	-944.19	288.15	183.35	-1003	325.53	202.47	-897.33	341.23	170.59	-1060.4	178.75	202.87	-1044.5	189.71	293.53	-1140.4	201.52	245.57	-1152.9	186.54	282.97	-1152.3	172.76	222.28	-1022.3	51.985	210.04	-1006.1	69.426	326.08	-941.71	37.932	283.51	-791.61	1531.4	304.37	-847.28	1259.8	305.48
139	0.575	-599.43	1271.6	316.81	-726.33	1478.8	482.49	-728.26	1476.1	128.81	-724.08	1797.4	302.48	-649.99	1038.6	442.65	-644.95	1028.7	190.36	NaN	NaN	NaN	-848.03	1061.3	269.94	-701.46	967.9	493.23	-746.58	965.18	135.71	-737.99	1113.8	474.04	-714.47	1103.8	153.6	-863.77	1025.4	313.4	-632.32	725.83	472.15	-556.31	666.86	434.33	-620.86	640.08	446.68	-564.96	754.56	454.2	-566.11	542.68	429.09	-571.25	551.29	301.57	-580.46	312.37	421.7	-514.24	256.24	396.22	-576.78	235.98	404.77	-519.55	331.42	411.69	-525.32	107.56	377.96	-513.38	117.57	287.33	-587.16	66.868	323.23	-574.67	37.366	292.59	-575.19	35.222	356.98	-398.21	52.736	394.5	-378.86	73.294	278.49	-314.76	98.712	322.82	-710.03	701.22	139.46	-660.13	613.91	185.23	-731.82	613.56	151.54	-643.07	706.9	168.62	-768.96	523.2	166.99	-723.85	512.65	281.52	-942.5	378.26	182	-935.43	289.9	181.78	-993.72	328.28	200.27	-887.64	342.24	169.22	-1053.3	182.71	200.79	-1037.9	193.69	291.56	-1132.7	208.3	242.6	-1146	194.02	280.03	-1145.4	179.73	219.45	-1019.4	54.28	208.83	-1003.1	72.179	324.7	-939.84	37.762	282.81	-786.16	1531.4	304.9	-841.62	1259.9	305.98
140	0.57917	-593.79	1271.8	316.98	-720.57	1478.9	482.93	-723.01	1476.2	129.25	-718.49	1797.5	302.84	-644.22	1038.9	442.86	-639.31	1028.8	190.57	NaN	NaN	NaN	-842.29	1061.2	270.15	-695.74	968.29	493.49	-740.69	964.91	135.91	-732.12	1114	474.26	-708.93	1103.9	153.8	-857.88	1025.5	313.7	-626.89	726.08	472.59	-551.05	666.99	434.86	-615.63	640.26	447.28	-559.63	754.61	454.33	-561.32	542.57	429.51	-566.75	551.13	302.04	-577.33	312.32	422.1	-511.62	255.72	396.4	-574.27	235.91	405.1	-516.3	330.93	411.91	-524.13	107.29	378.06	-512.06	117.2	287.4	-586.5	67.309	323.33	-574.33	37.682	292.65	-574.88	35.49	357.04	-397.69	51.076	394.51	-378.02	71.466	278.49	-313.54	96.025	322.8	-700.39	700.87	138.74	-649.56	614.05	184.42	-721.16	612.92	150.57	-633.61	707.28	168.17	-757.26	522.44	165.75	-712.28	511.78	280.45	-932.06	380.18	179.92	-926.36	291.7	180.28	-984.13	331.06	198.05	-877.69	343.28	167.92	-1045.9	186.78	198.73	-1031	197.75	289.61	-1124.6	215.11	239.6	-1138.8	201.48	277.02	-1138.2	186.77	216.55	-1016	56.844	207.49	-999.78	75.088	323.2	-937.63	37.7	281.98	-780.7	1531.5	305.43	-836	1259.9	306.47
141	0.58333	-588.19	1272	317.12	-714.79	1479	483.36	-717.78	1476.3	129.68	-712.9	1797.7	303.2	-638.52	1039.2	443.06	-633.71	1029	190.75	NaN	NaN	NaN	-836.6	1061.2	270.34	-690.09	968.74	493.75	-734.83	964.62	136.1	-726.3	1114.2	474.44	-703.46	1104	153.97	-852.04	1025.5	313.98	-621.61	726.36	473.04	-545.89	667.12	435.4	-610.5	640.47	447.9	-554.38	754.7	454.52	-556.64	542.47	429.96	-562.24	551.02	302.54	-574.31	312.29	422.52	-509.09	255.24	396.61	-571.86	235.88	405.43	-513.17	330.46	412.15	-523.03	107.03	378.17	-510.83	116.88	287.5	-585.88	67.718	323.44	-574.01	37.995	292.72	-574.59	35.74	357.09	-397.22	49.531	394.55	-377.24	69.787	278.52	-312.41	93.513	322.82	-690.66	700.57	138.08	-638.92	614.28	183.74	-710.4	612.34	149.67	-624.1	707.73	167.81	-745.4	521.75	164.58	-700.65	511.04	279.51	-921.38	382.12	177.85	-916.99	293.55	178.84	-974.27	333.87	195.83	-867.48	344.38	166.69	-1038.1	190.97	196.69	-1023.8	201.89	287.69	-1116.2	221.91	236.6	-1131.2	208.87	273.97	-1130.5	193.83	213.63	-1012.2	59.672	206.01	-996.06	78.129	321.58	-935.03	37.772	281.01	-775.24	1531.6	305.96	-830.41	1260	306.97
142	0.5875	-582.63	1272.2	317.22	-708.99	1479.2	483.78	-712.57	1476.5	130.09	-707.33	1797.8	303.55	-632.88	1039.6	443.23	-628.16	1029.1	190.88	NaN	NaN	NaN	-830.98	1061.1	270.5	-684.49	969.23	493.99	-729.01	964.32	136.28	-720.53	1114.5	474.59	-698.03	1104	154.11	-846.27	1025.6	314.24	-616.47	726.66	473.51	-540.85	667.25	435.95	-605.48	640.71	448.53	-549.22	754.81	454.78	-552.09	542.39	430.43	-557.73	550.96	303.07	-571.4	312.29	422.93	-506.68	254.79	396.85	-569.57	235.87	405.76	-510.15	330.01	412.43	-522.02	106.81	378.29	-509.68	116.62	287.61	-585.32	68.096	323.55	-573.7	38.301	292.79	-574.31	35.974	357.15	-396.8	48.105	394.61	-376.53	68.255	278.57	-311.38	91.177	322.87	-680.86	700.34	137.46	-628.23	614.62	183.18	-699.55	611.84	148.84	-614.56	708.27	167.56	-733.4	521.14	163.49	-688.98	510.44	278.69	-910.47	384.09	175.8	-907.34	295.46	177.48	-964.17	336.7	193.63	-857.06	345.53	165.55	-1030.1	195.25	194.69	-1016.4	206.07	285.8	-1107.5	228.66	233.64	-1123.2	216.12	270.92	-1122.5	200.85	210.69	-1007.9	62.752	204.4	-991.92	81.278	319.86	-932	38.002	279.89	-769.77	1531.7	306.48	-824.85	1260.2	307.45
143	0.59167	-577.11	1272.4	317.3	-703.18	1479.3	484.17	-707.37	1476.6	130.49	-701.76	1797.9	303.91	-627.29	1040	443.39	-622.64	1029.3	190.99	NaN	NaN	NaN	-825.42	1061.1	270.64	-678.97	969.77	494.23	-723.2	964.02	136.44	-714.82	1114.8	474.71	-692.66	1104	154.21	-840.57	1025.6	314.48	-611.49	726.98	473.99	-535.93	667.37	436.48	-600.58	640.95	449.16	-544.16	754.92	455.11	-547.67	542.32	430.91	-553.23	550.95	303.62	-568.62	312.31	423.34	-504.38	254.36	397.11	-567.39	235.9	406.08	-507.25	329.59	412.73	-521.1	106.61	378.41	-508.63	116.42	287.74	-584.81	68.442	323.65	-573.42	38.596	292.85	-574.05	36.189	357.21	-396.43	46.8	394.69	-375.88	66.864	278.64	-310.45	89.019	322.95	-671	700.2	136.9	-617.51	615.08	182.75	-688.63	611.43	148.09	-605	708.91	167.42	-721.3	520.65	162.49	-677.3	510.01	278.02	-899.35	386.08	173.79	-897.44	297.42	176.21	-953.85	339.54	191.46	-846.42	346.73	164.5	-1021.7	199.59	192.74	-1008.7	210.27	283.95	-1098.6	235.29	230.74	-1115	223.19	267.88	-1114.2	207.8	207.78	-1003.2	66.065	202.65	-987.33	84.505	318.02	-928.48	38.415	278.62	-764.3	1531.9	306.99	-819.33	1260.3	307.93
